<svg width="184" height="169" viewBox="0 0 184 169" fill="none" xmlns="http://www.w3.org/2000/svg">
<style>
  path { fill: #0a0a0a; }
  @media (prefers-color-scheme: dark) {
    path { fill: #ffffff; }
  }
</style>
<path fill-rule="evenodd" clip-rule="evenodd" d="M0 96.4999C-4.70757e-06 136.541 32.4593 169 72.5 169H110.766C150.807 169 183.266 136.541 183.266 96.5V72.5C183.266 32.4594 150.807 1.1526e-05 110.766 5.63239e-06L72.5 0C32.4594 -5.89357e-06 7.52923e-06 32.4593 2.82167e-06 72.5L0 96.4999ZM107.545 10.974L73.5259 10.974C46.2524 10.974 24.1428 33.0836 24.1428 60.3571C24.1428 87.6306 46.2524 109.74 73.5259 109.74H107.545C134.819 109.74 156.928 87.6306 156.928 60.3571C156.928 33.0836 134.819 10.974 107.545 10.974Z" />
</svg>
